# xmcd
# 
# Track frame offsets:
#     150
#     14169
#     42196
#     62431
#     77640
#     92669
#     113177
#     124755
#     143933
#     166473
#     182251
#     205061
#     225983
#     245581
#     261869
#     280505
#     293026
#     305274
# 
# Disc length: 4379
# 
# Revision: 10
# Processed by: cddbd v1.5.2PL0 Copyright (c) Steve Scherf et al.
# Submitted via: fre:ac v1.0.17
# 
DISCID=ef111912
DTITLE=Various Artist - While My Guitar Gently Weeps [Disc 1 of 2]
DYEAR=2002
DGENRE=Blues
TTITLE0=Eric Clapton - After Midnight
TTITLE1=Dire Straits - Love Over Gold
TTITLE2=Santana - Samba Pa Ti
TTITLE3=Stealers Wheel - Stuck in the Middle with You
TTITLE4=REO Speedwagon - Keep on Loving You
TTITLE5=Peter Frampton - Show Me the Way [Live]
TTITLE6=Free - Little Bit of Love
TTITLE7=The Robert Cray Band - Right Next Door (Because of Me)
TTITLE8=B.B. King - The Thrill Is Gone
TTITLE9=Roy Buchanan - Sweet Dreams
TTITLE10=Peter Green - Cryin' Won't Bring You Back
TTITLE11=Big Country - Chance
TTITLE12=Texas - I Don't Want a Lover
TTITLE13=Nils Lofgren - Shine Silently
TTITLE14=Snowy White - Bird of Paradise
TTITLE15=The Taste - What's Going On
TTITLE16=Cream - Badge
TTITLE17=The Jeff Healey Band - While My Guitar Gently Weeps
EXTD=CDDBSort:various_artists,while_my_guitar_gently_weeps_disc_1_of_2 - YEAR: 2002
EXTT0=
EXTT1=
EXTT2=
EXTT3=
EXTT4=
EXTT5=
EXTT6=
EXTT7=
EXTT8=
EXTT9=
EXTT10=
EXTT11=
EXTT12=
EXTT13=
EXTT14=
EXTT15=
EXTT16=
EXTT17=
PLAYORDER=
